<svg xmlns="http://www.w3.org/2000/svg" width="207" height="37.768" viewBox="0 0 207 37.768">
  <g id="logo_footer" transform="translate(-1.1 -1)">
    <path id="パス_6339" data-name="パス 6339" d="M68.335,32.412V9.113c0-2.818.877-3.132,3.257-3.132h1.5V3.1H57.688V5.981h1.628c2.192,0,3.194.752,3.194,3.132v23.3c0,2.38-1.253,3.382-3.507,3.382H57.5v2.881H73.1V35.794H71.655c-2.255,0-3.32-.564-3.32-3.382" transform="translate(-21.075 -0.785)" fill="#221815"/>
    <path id="パス_6340" data-name="パス 6340" d="M33.606,29.247H30.85a10.255,10.255,0,0,1-9.959,6.7c-7.077,0-12.714-6.764-12.714-15.846,0-9.9,4.071-16.284,12.025-16.284,6.576,0,9.207,3.382,10.272,7.579H32.98c-.313-2.505-.752-6.89-.752-7.829C30.036,3.13,25.965,1,19.827,1,8.992,1,1.1,8.453,1.1,20.1A18.37,18.37,0,0,0,19.7,38.767a20.44,20.44,0,0,0,12.464-3.758c.188-.877.814-3.57,1.441-5.762" fill="#221815"/>
    <path id="パス_6341" data-name="パス 6341" d="M111.1,5.981c3.194,0,4.071,2.192,4.071,4.572v1.879h2.693V3.1H87.8v9.332h2.693V10.491c0-2.38.877-4.572,4.071-4.572h5.449V32.349c0,2.38-1.441,3.382-3.633,3.382H94.752v2.881h16.284V35.731h-1.566c-2.192,0-3.633-.939-3.633-3.382V5.981Z" transform="translate(-32.398 -0.785)" fill="#221815"/>
    <path id="パス_6342" data-name="パス 6342" d="M199.971,28.967h-2.631v.626c0,2.944-.814,6.138-7.14,6.138H179.24l20.418-29.75V3.1H172.726v9.645h2.693v-1.19c0-3.069,1.441-5.574,5.512-5.574h11.4L172.1,35.794v2.881h27.871Z" transform="translate(-63.899 -0.785)" fill="#221815"/>
    <path id="パス_6343" data-name="パス 6343" d="M227.159,8.524V32.888c0,2.568-1.691,2.944-3.257,2.944h-.877v2.881h28.748V29h-2.568v.939c0,3.132-1.566,5.887-5.449,5.887H233.172V21.864h6.389c2.568,0,3.132,2.192,3.132,3.7v1.5h2.756V13.722h-2.756v1.19c0,1.5-.564,3.7-3.132,3.7h-6.388V6.018h10.084c5.073,0,5.2,4.2,5.2,5.762v.814h2.693V3.2H222.9V6.081h.626c2.38-.063,3.633.251,3.633,2.443" transform="translate(-82.881 -0.822)" fill="#221815"/>
    <path id="パス_6344" data-name="パス 6344" d="M309.736,5.981h.752V3.1H297.836V5.981h.814c2.818,0,3.821.939,3.821,3.382V29.092L284.683,3.1h-9.332V5.981h.877c1.754,0,3.069.689,3.069,3.445V32.662a2.915,2.915,0,0,1-2.568,3.132H275.1v2.818h12.088V35.731h-1.127c-1.253,0-3.257-.313-3.257-3.132V10.929l18.978,27.684h4.134V9.363c.063-2.443,1-3.382,3.821-3.382" transform="translate(-102.387 -0.785)" fill="#221815"/>
    <path id="パス_6345" data-name="パス 6345" d="M156.5,35.794h-1.441c-2.38,0-3.445-.564-3.445-3.382V9.113c0-2.818.877-3.132,3.257-3.132h1.5V3.1H141.025V5.981h1.628c2.192,0,3.194.752,3.194,3.132v23.3c0,2.38-1.253,3.382-3.445,3.382h-1.5v2.881h15.6Z" transform="translate(-52.24 -0.785)" fill="#221815"/>
  </g>
</svg>
